<?xml version="1.0" encoding="utf-8" standalone="no"?>
<!DOCTYPE svg PUBLIC "-//W3C//DTD SVG 1.1//EN"
  "http://www.w3.org/Graphics/SVG/1.1/DTD/svg11.dtd">
<svg xmlns:xlink="http://www.w3.org/1999/xlink" width="245.771406pt" height="203.038594pt" viewBox="0 0 245.771406 203.038594" xmlns="http://www.w3.org/2000/svg" version="1.1">
 <metadata>
  <rdf:RDF xmlns:dc="http://purl.org/dc/elements/1.1/" xmlns:cc="http://creativecommons.org/ns#" xmlns:rdf="http://www.w3.org/1999/02/22-rdf-syntax-ns#">
   <cc:Work>
    <dc:type rdf:resource="http://purl.org/dc/dcmitype/StillImage"/>
    <dc:date>2026-06-21T01:15:36.517249</dc:date>
    <dc:format>image/svg+xml</dc:format>
    <dc:creator>
     <cc:Agent>
      <dc:title>Matplotlib v3.11.0, https://matplotlib.org/</dc:title>
     </cc:Agent>
    </dc:creator>
   </cc:Work>
  </rdf:RDF>
 </metadata>
 <defs>
  <style type="text/css">*{stroke-linejoin: round; stroke-linecap: butt}</style>
 </defs>
 <g id="figure_1">
  <g id="patch_1">
   <path d="M 0 203.038594 
L 245.771406 203.038594 
L 245.771406 0 
L 0 0 
z
" style="fill: #ffffff"/>
  </g>
  <g id="axes_1">
   <g id="patch_2">
    <path d="M 41.513516 166.837891 
L 238.571406 166.837891 
L 238.571406 7.2 
L 41.513516 7.2 
z
" style="fill: #ffffff"/>
   </g>
   <g id="patch_3">
    <path d="M 103.550259 87.018945 
L 234.922186 87.018945 
L 234.922186 7.2 
L 103.550259 7.2 
z
" clip-path="url(#pd0c8094dc0)" style="fill: #eaf2f8; stroke: #eaf2f8; stroke-linejoin: miter"/>
   </g>
   <g id="matplotlib.axis_1">
    <g id="xtick_1">
     <g id="line2d_1">
      <path d="M 48.811956 166.837891 
L 48.811956 7.2 
" clip-path="url(#pd0c8094dc0)" style="fill: none; stroke: #e6e6e6; stroke-width: 0.5; stroke-linecap: square"/>
     </g>
     <g id="line2d_2">
      <defs>
       <path id="mf99ebe30b5" d="M 0 0 
L 0 3.5 
" style="stroke: #000000; stroke-width: 0.8"/>
      </defs>
      <g>
       <use xlink:href="#mf99ebe30b5" x="48.811956" y="166.837891" style="stroke: #000000; stroke-width: 0.8"/>
      </g>
     </g>
     <g id="text_1">
      <!-- 0.0 -->
      <g transform="translate(41.65555 180.675781) scale(0.09 -0.09)">
       <defs>
        <path id="DejaVuSerif-13" d="M 2034 219 
Q 2513 219 2750 744 
Q 2988 1269 2988 2328 
Q 2988 3391 2750 3916 
Q 2513 4441 2034 4441 
Q 1556 4441 1318 3916 
Q 1081 3391 1081 2328 
Q 1081 1269 1318 744 
Q 1556 219 2034 219 
z
M 2034 -91 
Q 1275 -91 848 546 
Q 422 1184 422 2328 
Q 422 3475 848 4112 
Q 1275 4750 2034 4750 
Q 2797 4750 3222 4112 
Q 3647 3475 3647 2328 
Q 3647 1184 3222 546 
Q 2797 -91 2034 -91 
z
" transform="scale(0.015625)"/>
        <path id="DejaVuSerif-11" d="M 603 325 
Q 603 500 722 622 
Q 841 744 1019 744 
Q 1191 744 1312 622 
Q 1434 500 1434 325 
Q 1434 153 1312 31 
Q 1191 -91 1019 -91 
Q 841 -91 722 29 
Q 603 150 603 325 
z
" transform="scale(0.015625)"/>
       </defs>
       <use xlink:href="#DejaVuSerif-13"/>
       <use xlink:href="#DejaVuSerif-11" transform="translate(63.625 0)"/>
       <use xlink:href="#DejaVuSerif-13" transform="translate(95.40625 0)"/>
      </g>
     </g>
    </g>
    <g id="xtick_2">
     <g id="line2d_3">
      <path d="M 85.304158 166.837891 
L 85.304158 7.2 
" clip-path="url(#pd0c8094dc0)" style="fill: none; stroke: #e6e6e6; stroke-width: 0.5; stroke-linecap: square"/>
     </g>
     <g id="line2d_4">
      <g>
       <use xlink:href="#mf99ebe30b5" x="85.304158" y="166.837891" style="stroke: #000000; stroke-width: 0.8"/>
      </g>
     </g>
     <g id="text_2">
      <!-- 0.2 -->
      <g transform="translate(78.147752 180.675781) scale(0.09 -0.09)">
       <defs>
        <path id="DejaVuSerif-15" d="M 819 3553 
L 469 3553 
L 469 4384 
Q 803 4563 1142 4656 
Q 1481 4750 1806 4750 
Q 2534 4750 2956 4397 
Q 3378 4044 3378 3438 
Q 3378 2753 2422 1800 
Q 2347 1728 2309 1691 
L 1131 513 
L 3078 513 
L 3078 1088 
L 3444 1088 
L 3444 0 
L 434 0 
L 434 341 
L 1850 1753 
Q 2319 2222 2519 2614 
Q 2719 3006 2719 3438 
Q 2719 3909 2473 4175 
Q 2228 4441 1797 4441 
Q 1350 4441 1106 4219 
Q 863 3997 819 3553 
z
" transform="scale(0.015625)"/>
       </defs>
       <use xlink:href="#DejaVuSerif-13"/>
       <use xlink:href="#DejaVuSerif-11" transform="translate(63.625 0)"/>
       <use xlink:href="#DejaVuSerif-15" transform="translate(95.40625 0)"/>
      </g>
     </g>
    </g>
    <g id="xtick_3">
     <g id="line2d_5">
      <path d="M 121.79636 166.837891 
L 121.79636 7.2 
" clip-path="url(#pd0c8094dc0)" style="fill: none; stroke: #e6e6e6; stroke-width: 0.5; stroke-linecap: square"/>
     </g>
     <g id="line2d_6">
      <g>
       <use xlink:href="#mf99ebe30b5" x="121.79636" y="166.837891" style="stroke: #000000; stroke-width: 0.8"/>
      </g>
     </g>
     <g id="text_3">
      <!-- 0.4 -->
      <g transform="translate(114.639954 180.675781) scale(0.09 -0.09)">
       <defs>
        <path id="DejaVuSerif-17" d="M 2234 1581 
L 2234 4063 
L 641 1581 
L 2234 1581 
z
M 3609 0 
L 1484 0 
L 1484 331 
L 2234 331 
L 2234 1247 
L 197 1247 
L 197 1588 
L 2241 4750 
L 2859 4750 
L 2859 1581 
L 3750 1581 
L 3750 1247 
L 2859 1247 
L 2859 331 
L 3609 331 
L 3609 0 
z
" transform="scale(0.015625)"/>
       </defs>
       <use xlink:href="#DejaVuSerif-13"/>
       <use xlink:href="#DejaVuSerif-11" transform="translate(63.625 0)"/>
       <use xlink:href="#DejaVuSerif-17" transform="translate(95.40625 0)"/>
      </g>
     </g>
    </g>
    <g id="xtick_4">
     <g id="line2d_7">
      <path d="M 158.288562 166.837891 
L 158.288562 7.2 
" clip-path="url(#pd0c8094dc0)" style="fill: none; stroke: #e6e6e6; stroke-width: 0.5; stroke-linecap: square"/>
     </g>
     <g id="line2d_8">
      <g>
       <use xlink:href="#mf99ebe30b5" x="158.288562" y="166.837891" style="stroke: #000000; stroke-width: 0.8"/>
      </g>
     </g>
     <g id="text_4">
      <!-- 0.6 -->
      <g transform="translate(151.132156 180.675781) scale(0.09 -0.09)">
       <defs>
        <path id="DejaVuSerif-19" d="M 2094 219 
Q 2534 219 2771 542 
Q 3009 866 3009 1472 
Q 3009 2078 2771 2401 
Q 2534 2725 2094 2725 
Q 1647 2725 1412 2412 
Q 1178 2100 1178 1509 
Q 1178 888 1415 553 
Q 1653 219 2094 219 
z
M 1075 2569 
Q 1288 2803 1556 2918 
Q 1825 3034 2163 3034 
Q 2859 3034 3264 2615 
Q 3669 2197 3669 1472 
Q 3669 763 3233 336 
Q 2797 -91 2069 -91 
Q 1278 -91 853 498 
Q 428 1088 428 2181 
Q 428 3406 931 4078 
Q 1434 4750 2350 4750 
Q 2597 4750 2869 4703 
Q 3141 4656 3425 4563 
L 3425 3794 
L 3072 3794 
Q 3034 4109 2831 4275 
Q 2628 4441 2284 4441 
Q 1678 4441 1381 3981 
Q 1084 3522 1075 2569 
z
" transform="scale(0.015625)"/>
       </defs>
       <use xlink:href="#DejaVuSerif-13"/>
       <use xlink:href="#DejaVuSerif-11" transform="translate(63.625 0)"/>
       <use xlink:href="#DejaVuSerif-19" transform="translate(95.40625 0)"/>
      </g>
     </g>
    </g>
    <g id="xtick_5">
     <g id="line2d_9">
      <path d="M 194.780764 166.837891 
L 194.780764 7.2 
" clip-path="url(#pd0c8094dc0)" style="fill: none; stroke: #e6e6e6; stroke-width: 0.5; stroke-linecap: square"/>
     </g>
     <g id="line2d_10">
      <g>
       <use xlink:href="#mf99ebe30b5" x="194.780764" y="166.837891" style="stroke: #000000; stroke-width: 0.8"/>
      </g>
     </g>
     <g id="text_5">
      <!-- 0.8 -->
      <g transform="translate(187.624358 180.675781) scale(0.09 -0.09)">
       <defs>
        <path id="DejaVuSerif-1b" d="M 2981 1275 
Q 2981 1775 2732 2051 
Q 2484 2328 2034 2328 
Q 1584 2328 1336 2051 
Q 1088 1775 1088 1275 
Q 1088 772 1336 495 
Q 1584 219 2034 219 
Q 2484 219 2732 495 
Q 2981 772 2981 1275 
z
M 2853 3541 
Q 2853 3966 2637 4203 
Q 2422 4441 2034 4441 
Q 1650 4441 1433 4203 
Q 1216 3966 1216 3541 
Q 1216 3113 1433 2875 
Q 1650 2638 2034 2638 
Q 2422 2638 2637 2875 
Q 2853 3113 2853 3541 
z
M 2516 2484 
Q 3047 2413 3344 2092 
Q 3641 1772 3641 1275 
Q 3641 619 3225 264 
Q 2809 -91 2034 -91 
Q 1263 -91 845 264 
Q 428 619 428 1275 
Q 428 1772 725 2092 
Q 1022 2413 1556 2484 
Q 1084 2569 832 2842 
Q 581 3116 581 3541 
Q 581 4103 968 4426 
Q 1356 4750 2034 4750 
Q 2713 4750 3100 4426 
Q 3488 4103 3488 3541 
Q 3488 3116 3236 2842 
Q 2984 2569 2516 2484 
z
" transform="scale(0.015625)"/>
       </defs>
       <use xlink:href="#DejaVuSerif-13"/>
       <use xlink:href="#DejaVuSerif-11" transform="translate(63.625 0)"/>
       <use xlink:href="#DejaVuSerif-1b" transform="translate(95.40625 0)"/>
      </g>
     </g>
    </g>
    <g id="xtick_6">
     <g id="line2d_11">
      <path d="M 231.272966 166.837891 
L 231.272966 7.2 
" clip-path="url(#pd0c8094dc0)" style="fill: none; stroke: #e6e6e6; stroke-width: 0.5; stroke-linecap: square"/>
     </g>
     <g id="line2d_12">
      <g>
       <use xlink:href="#mf99ebe30b5" x="231.272966" y="166.837891" style="stroke: #000000; stroke-width: 0.8"/>
      </g>
     </g>
     <g id="text_6">
      <!-- 1.0 -->
      <g transform="translate(224.11656 180.675781) scale(0.09 -0.09)">
       <defs>
        <path id="DejaVuSerif-14" d="M 909 0 
L 909 331 
L 1722 331 
L 1722 4213 
L 781 3603 
L 781 4013 
L 1919 4750 
L 2350 4750 
L 2350 331 
L 3163 331 
L 3163 0 
L 909 0 
z
" transform="scale(0.015625)"/>
       </defs>
       <use xlink:href="#DejaVuSerif-14"/>
       <use xlink:href="#DejaVuSerif-11" transform="translate(63.625 0)"/>
       <use xlink:href="#DejaVuSerif-13" transform="translate(95.40625 0)"/>
      </g>
     </g>
    </g>
    <g id="text_7">
     <!-- Mean mining probability (per workload) -->
     <g transform="translate(48.435117 193.676484) scale(0.09 -0.09)">
      <defs>
       <path id="DejaVuSerif-30" d="M 353 0 
L 353 331 
L 947 331 
L 947 4331 
L 319 4331 
L 319 4666 
L 1678 4666 
L 3316 1344 
L 4953 4666 
L 6228 4666 
L 6228 4331 
L 5606 4331 
L 5606 331 
L 6203 331 
L 6203 0 
L 4378 0 
L 4378 331 
L 4972 331 
L 4972 3938 
L 3372 684 
L 2931 684 
L 1331 3938 
L 1331 331 
L 1925 331 
L 1925 0 
L 353 0 
z
" transform="scale(0.015625)"/>
       <path id="DejaVuSerif-48" d="M 3469 1600 
L 991 1600 
L 991 1575 
Q 991 903 1244 561 
Q 1497 219 1991 219 
Q 2369 219 2611 417 
Q 2853 616 2950 1006 
L 3413 1006 
Q 3275 459 2904 184 
Q 2534 -91 1931 -91 
Q 1203 -91 761 389 
Q 319 869 319 1663 
Q 319 2450 753 2931 
Q 1188 3413 1894 3413 
Q 2647 3413 3050 2948 
Q 3453 2484 3469 1600 
z
M 2791 1931 
Q 2772 2513 2545 2808 
Q 2319 3103 1894 3103 
Q 1497 3103 1269 2806 
Q 1041 2509 991 1931 
L 2791 1931 
z
" transform="scale(0.015625)"/>
       <path id="DejaVuSerif-44" d="M 2547 1044 
L 2547 1747 
L 1806 1747 
Q 1378 1747 1168 1562 
Q 959 1378 959 997 
Q 959 650 1171 447 
Q 1384 244 1747 244 
Q 2106 244 2326 466 
Q 2547 688 2547 1044 
z
M 3122 2075 
L 3122 331 
L 3634 331 
L 3634 0 
L 2547 0 
L 2547 359 
Q 2356 128 2106 18 
Q 1856 -91 1522 -91 
Q 969 -91 644 203 
Q 319 497 319 997 
Q 319 1513 691 1797 
Q 1063 2081 1741 2081 
L 2547 2081 
L 2547 2309 
Q 2547 2688 2317 2895 
Q 2088 3103 1672 3103 
Q 1328 3103 1125 2947 
Q 922 2791 872 2484 
L 575 2484 
L 575 3156 
Q 875 3284 1158 3348 
Q 1441 3413 1709 3413 
Q 2400 3413 2761 3070 
Q 3122 2728 3122 2075 
z
" transform="scale(0.015625)"/>
       <path id="DejaVuSerif-51" d="M 263 0 
L 263 331 
L 781 331 
L 781 2988 
L 231 2988 
L 231 3322 
L 1356 3322 
L 1356 2731 
Q 1516 3069 1770 3241 
Q 2025 3413 2363 3413 
Q 2913 3413 3172 3097 
Q 3431 2781 3431 2113 
L 3431 331 
L 3944 331 
L 3944 0 
L 2356 0 
L 2356 331 
L 2853 331 
L 2853 1931 
Q 2853 2541 2703 2767 
Q 2553 2994 2175 2994 
Q 1775 2994 1565 2701 
Q 1356 2409 1356 1850 
L 1356 331 
L 1856 331 
L 1856 0 
L 263 0 
z
" transform="scale(0.015625)"/>
       <path id="DejaVuSerif-3" transform="scale(0.015625)"/>
       <path id="DejaVuSerif-50" d="M 3316 2675 
Q 3481 3041 3739 3227 
Q 3997 3413 4341 3413 
Q 4863 3413 5119 3089 
Q 5375 2766 5375 2113 
L 5375 331 
L 5894 331 
L 5894 0 
L 4300 0 
L 4300 331 
L 4800 331 
L 4800 2047 
Q 4800 2556 4650 2772 
Q 4500 2988 4153 2988 
Q 3769 2988 3567 2697 
Q 3366 2406 3366 1850 
L 3366 331 
L 3866 331 
L 3866 0 
L 2291 0 
L 2291 331 
L 2791 331 
L 2791 2069 
Q 2791 2566 2641 2777 
Q 2491 2988 2144 2988 
Q 1759 2988 1557 2697 
Q 1356 2406 1356 1850 
L 1356 331 
L 1856 331 
L 1856 0 
L 263 0 
L 263 331 
L 781 331 
L 781 2994 
L 231 2994 
L 231 3322 
L 1356 3322 
L 1356 2731 
Q 1516 3063 1762 3238 
Q 2009 3413 2322 3413 
Q 2709 3413 2968 3220 
Q 3228 3028 3316 2675 
z
" transform="scale(0.015625)"/>
       <path id="DejaVuSerif-4c" d="M 622 4353 
Q 622 4497 726 4603 
Q 831 4709 978 4709 
Q 1122 4709 1226 4603 
Q 1331 4497 1331 4353 
Q 1331 4206 1228 4103 
Q 1125 4000 978 4000 
Q 831 4000 726 4103 
Q 622 4206 622 4353 
z
M 1356 331 
L 1900 331 
L 1900 0 
L 231 0 
L 231 331 
L 781 331 
L 781 2988 
L 231 2988 
L 231 3322 
L 1356 3322 
L 1356 331 
z
" transform="scale(0.015625)"/>
       <path id="DejaVuSerif-4a" d="M 3359 2988 
L 3359 72 
Q 3359 -644 2965 -1033 
Q 2572 -1422 1844 -1422 
Q 1516 -1422 1216 -1362 
Q 916 -1303 641 -1184 
L 641 -488 
L 941 -488 
Q 997 -813 1206 -963 
Q 1416 -1113 1806 -1113 
Q 2313 -1113 2548 -827 
Q 2784 -541 2784 72 
L 2784 519 
Q 2616 206 2355 57 
Q 2094 -91 1709 -91 
Q 1097 -91 708 395 
Q 319 881 319 1663 
Q 319 2444 706 2928 
Q 1094 3413 1709 3413 
Q 2094 3413 2355 3264 
Q 2616 3116 2784 2803 
L 2784 3322 
L 3909 3322 
L 3909 2988 
L 3359 2988 
z
M 2784 1825 
Q 2784 2422 2554 2737 
Q 2325 3053 1888 3053 
Q 1444 3053 1217 2703 
Q 991 2353 991 1663 
Q 991 975 1217 622 
Q 1444 269 1888 269 
Q 2325 269 2554 583 
Q 2784 897 2784 1497 
L 2784 1825 
z
" transform="scale(0.015625)"/>
       <path id="DejaVuSerif-53" d="M 1313 1825 
L 1313 1497 
Q 1313 897 1542 583 
Q 1772 269 2209 269 
Q 2650 269 2876 622 
Q 3103 975 3103 1663 
Q 3103 2353 2876 2703 
Q 2650 3053 2209 3053 
Q 1772 3053 1542 2737 
Q 1313 2422 1313 1825 
z
M 738 2988 
L 184 2988 
L 184 3322 
L 1313 3322 
L 1313 2803 
Q 1481 3116 1742 3264 
Q 2003 3413 2388 3413 
Q 3000 3413 3387 2928 
Q 3775 2444 3775 1663 
Q 3775 881 3387 395 
Q 3000 -91 2388 -91 
Q 2003 -91 1742 57 
Q 1481 206 1313 519 
L 1313 -997 
L 1856 -997 
L 1856 -1331 
L 184 -1331 
L 184 -997 
L 738 -997 
L 738 2988 
z
" transform="scale(0.015625)"/>
       <path id="DejaVuSerif-55" d="M 3059 3328 
L 3059 2497 
L 2728 2497 
Q 2713 2744 2591 2866 
Q 2469 2988 2234 2988 
Q 1809 2988 1582 2694 
Q 1356 2400 1356 1850 
L 1356 331 
L 2022 331 
L 2022 0 
L 263 0 
L 263 331 
L 781 331 
L 781 2994 
L 231 2994 
L 231 3322 
L 1356 3322 
L 1356 2731 
Q 1525 3078 1790 3245 
Q 2056 3413 2438 3413 
Q 2578 3413 2733 3391 
Q 2888 3369 3059 3328 
z
" transform="scale(0.015625)"/>
       <path id="DejaVuSerif-52" d="M 1925 219 
Q 2388 219 2623 584 
Q 2859 950 2859 1663 
Q 2859 2375 2623 2739 
Q 2388 3103 1925 3103 
Q 1463 3103 1227 2739 
Q 991 2375 991 1663 
Q 991 950 1228 584 
Q 1466 219 1925 219 
z
M 1925 -91 
Q 1200 -91 759 389 
Q 319 869 319 1663 
Q 319 2456 758 2934 
Q 1197 3413 1925 3413 
Q 2653 3413 3092 2934 
Q 3531 2456 3531 1663 
Q 3531 869 3092 389 
Q 2653 -91 1925 -91 
z
" transform="scale(0.015625)"/>
       <path id="DejaVuSerif-45" d="M 738 331 
L 738 4531 
L 184 4531 
L 184 4863 
L 1313 4863 
L 1313 2803 
Q 1481 3116 1742 3264 
Q 2003 3413 2388 3413 
Q 3000 3413 3387 2928 
Q 3775 2444 3775 1663 
Q 3775 881 3387 395 
Q 3000 -91 2388 -91 
Q 2003 -91 1742 57 
Q 1481 206 1313 519 
L 1313 0 
L 184 0 
L 184 331 
L 738 331 
z
M 1313 1497 
Q 1313 897 1542 583 
Q 1772 269 2209 269 
Q 2650 269 2876 622 
Q 3103 975 3103 1663 
Q 3103 2353 2876 2703 
Q 2650 3053 2209 3053 
Q 1772 3053 1542 2737 
Q 1313 2422 1313 1825 
L 1313 1497 
z
" transform="scale(0.015625)"/>
       <path id="DejaVuSerif-4f" d="M 1313 331 
L 1856 331 
L 1856 0 
L 184 0 
L 184 331 
L 738 331 
L 738 4531 
L 184 4531 
L 184 4863 
L 1313 4863 
L 1313 331 
z
" transform="scale(0.015625)"/>
       <path id="DejaVuSerif-57" d="M 691 2988 
L 184 2988 
L 184 3322 
L 691 3322 
L 691 4353 
L 1269 4353 
L 1269 3322 
L 2350 3322 
L 2350 2988 
L 1269 2988 
L 1269 878 
Q 1269 456 1350 337 
Q 1431 219 1650 219 
Q 1875 219 1978 351 
Q 2081 484 2088 781 
L 2522 781 
Q 2497 328 2275 118 
Q 2053 -91 1600 -91 
Q 1103 -91 897 129 
Q 691 350 691 878 
L 691 2988 
z
" transform="scale(0.015625)"/>
       <path id="DejaVuSerif-5c" d="M 1381 -609 
L 1600 -56 
L 359 2988 
L -19 2988 
L -19 3322 
L 1509 3322 
L 1509 2988 
L 978 2988 
L 1913 703 
L 2847 2988 
L 2350 2988 
L 2350 3322 
L 3597 3322 
L 3597 2988 
L 3225 2988 
L 1703 -750 
Q 1547 -1138 1356 -1280 
Q 1166 -1422 819 -1422 
Q 672 -1422 517 -1397 
Q 363 -1372 206 -1325 
L 206 -691 
L 500 -691 
Q 519 -903 608 -995 
Q 697 -1088 884 -1088 
Q 1056 -1088 1161 -992 
Q 1266 -897 1381 -609 
z
" transform="scale(0.015625)"/>
       <path id="DejaVuSerif-b" d="M 2041 -997 
Q 1281 -656 893 83 
Q 506 822 506 1931 
Q 506 3044 893 3783 
Q 1281 4522 2041 4863 
L 2041 4556 
Q 1559 4225 1350 3623 
Q 1141 3022 1141 1931 
Q 1141 844 1350 242 
Q 1559 -359 2041 -691 
L 2041 -997 
z
" transform="scale(0.015625)"/>
       <path id="DejaVuSerif-5a" d="M 3072 3322 
L 3922 728 
L 4672 2988 
L 4191 2988 
L 4191 3322 
L 5394 3322 
L 5394 2988 
L 5025 2988 
L 4038 0 
L 3559 0 
L 2741 2484 
L 1919 0 
L 1459 0 
L 475 2988 
L 103 2988 
L 103 3322 
L 1606 3322 
L 1606 2988 
L 1069 2988 
L 1813 728 
L 2669 3322 
L 3072 3322 
z
" transform="scale(0.015625)"/>
       <path id="DejaVuSerif-4e" d="M 1831 0 
L 219 0 
L 219 331 
L 738 331 
L 738 4531 
L 184 4531 
L 184 4863 
L 1313 4863 
L 1313 1697 
L 2713 2988 
L 2234 2988 
L 2234 3322 
L 3738 3322 
L 3738 2988 
L 3169 2988 
L 2181 2075 
L 3444 331 
L 3922 331 
L 3922 0 
L 2284 0 
L 2284 331 
L 2759 331 
L 1766 1697 
L 1313 1275 
L 1313 331 
L 1831 331 
L 1831 0 
z
" transform="scale(0.015625)"/>
       <path id="DejaVuSerif-47" d="M 3359 331 
L 3909 331 
L 3909 0 
L 2784 0 
L 2784 519 
Q 2616 206 2355 57 
Q 2094 -91 1709 -91 
Q 1097 -91 708 395 
Q 319 881 319 1663 
Q 319 2444 706 2928 
Q 1094 3413 1709 3413 
Q 2094 3413 2355 3264 
Q 2616 3116 2784 2803 
L 2784 4531 
L 2241 4531 
L 2241 4863 
L 3359 4863 
L 3359 331 
z
M 2784 1497 
L 2784 1825 
Q 2784 2422 2554 2737 
Q 2325 3053 1888 3053 
Q 1444 3053 1217 2703 
Q 991 2353 991 1663 
Q 991 975 1217 622 
Q 1444 269 1888 269 
Q 2325 269 2554 583 
Q 2784 897 2784 1497 
z
" transform="scale(0.015625)"/>
       <path id="DejaVuSerif-c" d="M 453 -997 
L 453 -691 
Q 934 -359 1145 242 
Q 1356 844 1356 1931 
Q 1356 3022 1145 3623 
Q 934 4225 453 4556 
L 453 4863 
Q 1216 4522 1603 3783 
Q 1991 3044 1991 1931 
Q 1991 822 1603 83 
Q 1216 -656 453 -997 
z
" transform="scale(0.015625)"/>
      </defs>
      <use xlink:href="#DejaVuSerif-30"/>
      <use xlink:href="#DejaVuSerif-48" transform="translate(102.390625 0)"/>
      <use xlink:href="#DejaVuSerif-44" transform="translate(161.578125 0)"/>
      <use xlink:href="#DejaVuSerif-51" transform="translate(221.203125 0)"/>
      <use xlink:href="#DejaVuSerif-3" transform="translate(285.609375 0)"/>
      <use xlink:href="#DejaVuSerif-50" transform="translate(317.390625 0)"/>
      <use xlink:href="#DejaVuSerif-4c" transform="translate(412.21875 0)"/>
      <use xlink:href="#DejaVuSerif-51" transform="translate(444.203125 0)"/>
      <use xlink:href="#DejaVuSerif-4c" transform="translate(508.609375 0)"/>
      <use xlink:href="#DejaVuSerif-51" transform="translate(540.59375 0)"/>
      <use xlink:href="#DejaVuSerif-4a" transform="translate(605 0)"/>
      <use xlink:href="#DejaVuSerif-3" transform="translate(669.015625 0)"/>
      <use xlink:href="#DejaVuSerif-53" transform="translate(700.796875 0)"/>
      <use xlink:href="#DejaVuSerif-55" transform="translate(764.8125 0)"/>
      <use xlink:href="#DejaVuSerif-52" transform="translate(812.609375 0)"/>
      <use xlink:href="#DejaVuSerif-45" transform="translate(872.8125 0)"/>
      <use xlink:href="#DejaVuSerif-44" transform="translate(936.828125 0)"/>
      <use xlink:href="#DejaVuSerif-45" transform="translate(996.453125 0)"/>
      <use xlink:href="#DejaVuSerif-4c" transform="translate(1060.46875 0)"/>
      <use xlink:href="#DejaVuSerif-4f" transform="translate(1092.453125 0)"/>
      <use xlink:href="#DejaVuSerif-4c" transform="translate(1124.4375 0)"/>
      <use xlink:href="#DejaVuSerif-57" transform="translate(1156.421875 0)"/>
      <use xlink:href="#DejaVuSerif-5c" transform="translate(1196.609375 0)"/>
      <use xlink:href="#DejaVuSerif-3" transform="translate(1253.109375 0)"/>
      <use xlink:href="#DejaVuSerif-b" transform="translate(1284.890625 0)"/>
      <use xlink:href="#DejaVuSerif-53" transform="translate(1323.90625 0)"/>
      <use xlink:href="#DejaVuSerif-48" transform="translate(1387.921875 0)"/>
      <use xlink:href="#DejaVuSerif-55" transform="translate(1447.109375 0)"/>
      <use xlink:href="#DejaVuSerif-3" transform="translate(1494.90625 0)"/>
      <use xlink:href="#DejaVuSerif-5a" transform="translate(1526.6875 0)"/>
      <use xlink:href="#DejaVuSerif-52" transform="translate(1612.28125 0)"/>
      <use xlink:href="#DejaVuSerif-55" transform="translate(1672.484375 0)"/>
      <use xlink:href="#DejaVuSerif-4e" transform="translate(1720.28125 0)"/>
      <use xlink:href="#DejaVuSerif-4f" transform="translate(1780.875 0)"/>
      <use xlink:href="#DejaVuSerif-52" transform="translate(1812.859375 0)"/>
      <use xlink:href="#DejaVuSerif-44" transform="translate(1873.0625 0)"/>
      <use xlink:href="#DejaVuSerif-47" transform="translate(1932.6875 0)"/>
      <use xlink:href="#DejaVuSerif-c" transform="translate(1996.703125 0)"/>
     </g>
    </g>
   </g>
   <g id="matplotlib.axis_2">
    <g id="ytick_1">
     <g id="line2d_13">
      <path d="M 41.513516 161.136537 
L 238.571406 161.136537 
" clip-path="url(#pd0c8094dc0)" style="fill: none; stroke: #e6e6e6; stroke-width: 0.5; stroke-linecap: square"/>
     </g>
     <g id="line2d_14">
      <defs>
       <path id="m9ebc53e736" d="M 0 0 
L -3.5 0 
" style="stroke: #000000; stroke-width: 0.8"/>
      </defs>
      <g>
       <use xlink:href="#m9ebc53e736" x="41.513516" y="161.136537" style="stroke: #000000; stroke-width: 0.8"/>
      </g>
     </g>
     <g id="text_8">
      <!-- 0.0 -->
      <g transform="translate(20.200703 164.555483) scale(0.09 -0.09)">
       <use xlink:href="#DejaVuSerif-13"/>
       <use xlink:href="#DejaVuSerif-11" transform="translate(63.625 0)"/>
       <use xlink:href="#DejaVuSerif-13" transform="translate(95.40625 0)"/>
      </g>
     </g>
    </g>
    <g id="ytick_2">
     <g id="line2d_15">
      <path d="M 41.513516 132.629771 
L 238.571406 132.629771 
" clip-path="url(#pd0c8094dc0)" style="fill: none; stroke: #e6e6e6; stroke-width: 0.5; stroke-linecap: square"/>
     </g>
     <g id="line2d_16">
      <g>
       <use xlink:href="#m9ebc53e736" x="41.513516" y="132.629771" style="stroke: #000000; stroke-width: 0.8"/>
      </g>
     </g>
     <g id="text_9">
      <!-- 0.2 -->
      <g transform="translate(20.200703 136.048717) scale(0.09 -0.09)">
       <use xlink:href="#DejaVuSerif-13"/>
       <use xlink:href="#DejaVuSerif-11" transform="translate(63.625 0)"/>
       <use xlink:href="#DejaVuSerif-15" transform="translate(95.40625 0)"/>
      </g>
     </g>
    </g>
    <g id="ytick_3">
     <g id="line2d_17">
      <path d="M 41.513516 104.123005 
L 238.571406 104.123005 
" clip-path="url(#pd0c8094dc0)" style="fill: none; stroke: #e6e6e6; stroke-width: 0.5; stroke-linecap: square"/>
     </g>
     <g id="line2d_18">
      <g>
       <use xlink:href="#m9ebc53e736" x="41.513516" y="104.123005" style="stroke: #000000; stroke-width: 0.8"/>
      </g>
     </g>
     <g id="text_10">
      <!-- 0.4 -->
      <g transform="translate(20.200703 107.54195) scale(0.09 -0.09)">
       <use xlink:href="#DejaVuSerif-13"/>
       <use xlink:href="#DejaVuSerif-11" transform="translate(63.625 0)"/>
       <use xlink:href="#DejaVuSerif-17" transform="translate(95.40625 0)"/>
      </g>
     </g>
    </g>
    <g id="ytick_4">
     <g id="line2d_19">
      <path d="M 41.513516 75.616239 
L 238.571406 75.616239 
" clip-path="url(#pd0c8094dc0)" style="fill: none; stroke: #e6e6e6; stroke-width: 0.5; stroke-linecap: square"/>
     </g>
     <g id="line2d_20">
      <g>
       <use xlink:href="#m9ebc53e736" x="41.513516" y="75.616239" style="stroke: #000000; stroke-width: 0.8"/>
      </g>
     </g>
     <g id="text_11">
      <!-- 0.6 -->
      <g transform="translate(20.200703 79.035184) scale(0.09 -0.09)">
       <use xlink:href="#DejaVuSerif-13"/>
       <use xlink:href="#DejaVuSerif-11" transform="translate(63.625 0)"/>
       <use xlink:href="#DejaVuSerif-19" transform="translate(95.40625 0)"/>
      </g>
     </g>
    </g>
    <g id="ytick_5">
     <g id="line2d_21">
      <path d="M 41.513516 47.109473 
L 238.571406 47.109473 
" clip-path="url(#pd0c8094dc0)" style="fill: none; stroke: #e6e6e6; stroke-width: 0.5; stroke-linecap: square"/>
     </g>
     <g id="line2d_22">
      <g>
       <use xlink:href="#m9ebc53e736" x="41.513516" y="47.109473" style="stroke: #000000; stroke-width: 0.8"/>
      </g>
     </g>
     <g id="text_12">
      <!-- 0.8 -->
      <g transform="translate(20.200703 50.528418) scale(0.09 -0.09)">
       <use xlink:href="#DejaVuSerif-13"/>
       <use xlink:href="#DejaVuSerif-11" transform="translate(63.625 0)"/>
       <use xlink:href="#DejaVuSerif-1b" transform="translate(95.40625 0)"/>
      </g>
     </g>
    </g>
    <g id="ytick_6">
     <g id="line2d_23">
      <path d="M 41.513516 18.602706 
L 238.571406 18.602706 
" clip-path="url(#pd0c8094dc0)" style="fill: none; stroke: #e6e6e6; stroke-width: 0.5; stroke-linecap: square"/>
     </g>
     <g id="line2d_24">
      <g>
       <use xlink:href="#m9ebc53e736" x="41.513516" y="18.602706" style="stroke: #000000; stroke-width: 0.8"/>
      </g>
     </g>
     <g id="text_13">
      <!-- 1.0 -->
      <g transform="translate(20.200703 22.021652) scale(0.09 -0.09)">
       <use xlink:href="#DejaVuSerif-14"/>
       <use xlink:href="#DejaVuSerif-11" transform="translate(63.625 0)"/>
       <use xlink:href="#DejaVuSerif-13" transform="translate(95.40625 0)"/>
      </g>
     </g>
    </g>
    <g id="text_14">
     <!-- Max mining probability -->
     <g transform="translate(14.038594 140.384727) rotate(-90) scale(0.09 -0.09)">
      <defs>
       <path id="DejaVuSerif-5b" d="M 1863 2028 
L 2559 2988 
L 2113 2988 
L 2113 3322 
L 3391 3322 
L 3391 2988 
L 2950 2988 
L 2059 1759 
L 3097 331 
L 3531 331 
L 3531 0 
L 1997 0 
L 1997 331 
L 2419 331 
L 1697 1325 
L 972 331 
L 1403 331 
L 1403 0 
L 141 0 
L 141 331 
L 581 331 
L 1497 1594 
L 488 2988 
L 78 2988 
L 78 3322 
L 1563 3322 
L 1563 2988 
L 1166 2988 
L 1863 2028 
z
" transform="scale(0.015625)"/>
      </defs>
      <use xlink:href="#DejaVuSerif-30"/>
      <use xlink:href="#DejaVuSerif-44" transform="translate(102.390625 0)"/>
      <use xlink:href="#DejaVuSerif-5b" transform="translate(162.015625 0)"/>
      <use xlink:href="#DejaVuSerif-3" transform="translate(218.40625 0)"/>
      <use xlink:href="#DejaVuSerif-50" transform="translate(250.1875 0)"/>
      <use xlink:href="#DejaVuSerif-4c" transform="translate(345.015625 0)"/>
      <use xlink:href="#DejaVuSerif-51" transform="translate(377 0)"/>
      <use xlink:href="#DejaVuSerif-4c" transform="translate(441.40625 0)"/>
      <use xlink:href="#DejaVuSerif-51" transform="translate(473.390625 0)"/>
      <use xlink:href="#DejaVuSerif-4a" transform="translate(537.796875 0)"/>
      <use xlink:href="#DejaVuSerif-3" transform="translate(601.8125 0)"/>
      <use xlink:href="#DejaVuSerif-53" transform="translate(633.59375 0)"/>
      <use xlink:href="#DejaVuSerif-55" transform="translate(697.609375 0)"/>
      <use xlink:href="#DejaVuSerif-52" transform="translate(745.40625 0)"/>
      <use xlink:href="#DejaVuSerif-45" transform="translate(805.609375 0)"/>
      <use xlink:href="#DejaVuSerif-44" transform="translate(869.625 0)"/>
      <use xlink:href="#DejaVuSerif-45" transform="translate(929.25 0)"/>
      <use xlink:href="#DejaVuSerif-4c" transform="translate(993.265625 0)"/>
      <use xlink:href="#DejaVuSerif-4f" transform="translate(1025.25 0)"/>
      <use xlink:href="#DejaVuSerif-4c" transform="translate(1057.234375 0)"/>
      <use xlink:href="#DejaVuSerif-57" transform="translate(1089.21875 0)"/>
      <use xlink:href="#DejaVuSerif-5c" transform="translate(1129.40625 0)"/>
     </g>
    </g>
   </g>
   <g id="line2d_25">
    <path d="M 103.550259 166.837891 
L 103.550259 7.2 
" clip-path="url(#pd0c8094dc0)" style="fill: none; stroke-dasharray: 4.07,1.76; stroke-dashoffset: 0; stroke: #333333; stroke-width: 1.1"/>
   </g>
   <g id="line2d_26">
    <path d="M 41.513516 89.869622 
L 238.571406 89.869622 
" clip-path="url(#pd0c8094dc0)" style="fill: none; stroke-dasharray: 4.07,1.76; stroke-dashoffset: 0; stroke: #333333; stroke-width: 1.1"/>
   </g>
   <g id="patch_4">
    <path d="M 41.513516 166.837891 
L 41.513516 7.2 
" style="fill: none; stroke: #000000; stroke-width: 0.6; stroke-linejoin: miter; stroke-linecap: square"/>
   </g>
   <g id="patch_5">
    <path d="M 238.571406 166.837891 
L 238.571406 7.2 
" style="fill: none; stroke: #000000; stroke-width: 0.6; stroke-linejoin: miter; stroke-linecap: square"/>
   </g>
   <g id="patch_6">
    <path d="M 41.513516 166.837891 
L 238.571406 166.837891 
" style="fill: none; stroke: #000000; stroke-width: 0.6; stroke-linejoin: miter; stroke-linecap: square"/>
   </g>
   <g id="patch_7">
    <path d="M 41.513516 7.2 
L 238.571406 7.2 
" style="fill: none; stroke: #000000; stroke-width: 0.6; stroke-linejoin: miter; stroke-linecap: square"/>
   </g>
   <g id="PathCollection_1">
    <defs>
     <path id="m8cabc7feb7" d="M 0 2.236068 
C 0.593012 2.236068 1.161816 2.000462 1.581139 1.581139 
C 2.000462 1.161816 2.236068 0.593012 2.236068 0 
C 2.236068 -0.593012 2.000462 -1.161816 1.581139 -1.581139 
C 1.161816 -2.000462 0.593012 -2.236068 0 -2.236068 
C -0.593012 -2.236068 -1.161816 -2.000462 -1.581139 -1.581139 
C -2.000462 -1.161816 -2.236068 -0.593012 -2.236068 0 
C -2.236068 0.593012 -2.000462 1.161816 -1.581139 1.581139 
C -1.161816 2.000462 -0.593012 2.236068 0 2.236068 
z
" style="stroke: #1f4e79; stroke-opacity: 0.8"/>
    </defs>
    <g clip-path="url(#pd0c8094dc0)">
     <use xlink:href="#m8cabc7feb7" x="229.3392" y="18.613677" style="fill: #1f4e79; fill-opacity: 0.8; stroke: #1f4e79; stroke-opacity: 0.8"/>
     <use xlink:href="#m8cabc7feb7" x="145.691328" y="18.605496" style="fill: #1f4e79; fill-opacity: 0.8; stroke: #1f4e79; stroke-opacity: 0.8"/>
     <use xlink:href="#m8cabc7feb7" x="204.672471" y="18.603178" style="fill: #1f4e79; fill-opacity: 0.8; stroke: #1f4e79; stroke-opacity: 0.8"/>
     <use xlink:href="#m8cabc7feb7" x="204.672471" y="18.603178" style="fill: #1f4e79; fill-opacity: 0.8; stroke: #1f4e79; stroke-opacity: 0.8"/>
     <use xlink:href="#m8cabc7feb7" x="207.185618" y="18.602945" style="fill: #1f4e79; fill-opacity: 0.8; stroke: #1f4e79; stroke-opacity: 0.8"/>
     <use xlink:href="#m8cabc7feb7" x="173.303758" y="63.886756" style="fill: #1f4e79; fill-opacity: 0.8; stroke: #1f4e79; stroke-opacity: 0.8"/>
     <use xlink:href="#m8cabc7feb7" x="171.231214" y="57.607756" style="fill: #1f4e79; fill-opacity: 0.8; stroke: #1f4e79; stroke-opacity: 0.8"/>
     <use xlink:href="#m8cabc7feb7" x="230.991556" y="18.822537" style="fill: #1f4e79; fill-opacity: 0.8; stroke: #1f4e79; stroke-opacity: 0.8"/>
     <use xlink:href="#m8cabc7feb7" x="231.2726" y="18.602992" style="fill: #1f4e79; fill-opacity: 0.8; stroke: #1f4e79; stroke-opacity: 0.8"/>
     <use xlink:href="#m8cabc7feb7" x="205.553633" y="19.391383" style="fill: #1f4e79; fill-opacity: 0.8; stroke: #1f4e79; stroke-opacity: 0.8"/>
     <use xlink:href="#m8cabc7feb7" x="136.471559" y="44.135925" style="fill: #1f4e79; fill-opacity: 0.8; stroke: #1f4e79; stroke-opacity: 0.8"/>
     <use xlink:href="#m8cabc7feb7" x="120.425472" y="19.486674" style="fill: #1f4e79; fill-opacity: 0.8; stroke: #1f4e79; stroke-opacity: 0.8"/>
     <use xlink:href="#m8cabc7feb7" x="148.523081" y="20.127559" style="fill: #1f4e79; fill-opacity: 0.8; stroke: #1f4e79; stroke-opacity: 0.8"/>
     <use xlink:href="#m8cabc7feb7" x="148.523081" y="20.127559" style="fill: #1f4e79; fill-opacity: 0.8; stroke: #1f4e79; stroke-opacity: 0.8"/>
     <use xlink:href="#m8cabc7feb7" x="199.734588" y="19.334202" style="fill: #1f4e79; fill-opacity: 0.8; stroke: #1f4e79; stroke-opacity: 0.8"/>
     <use xlink:href="#m8cabc7feb7" x="129.308494" y="18.732627" style="fill: #1f4e79; fill-opacity: 0.8; stroke: #1f4e79; stroke-opacity: 0.8"/>
     <use xlink:href="#m8cabc7feb7" x="225.957985" y="22.754632" style="fill: #1f4e79; fill-opacity: 0.8; stroke: #1f4e79; stroke-opacity: 0.8"/>
     <use xlink:href="#m8cabc7feb7" x="191.558967" y="18.603797" style="fill: #1f4e79; fill-opacity: 0.8; stroke: #1f4e79; stroke-opacity: 0.8"/>
     <use xlink:href="#m8cabc7feb7" x="228.385381" y="18.607492" style="fill: #1f4e79; fill-opacity: 0.8; stroke: #1f4e79; stroke-opacity: 0.8"/>
     <use xlink:href="#m8cabc7feb7" x="53.648382" y="157.358446" style="fill: #1f4e79; fill-opacity: 0.8; stroke: #1f4e79; stroke-opacity: 0.8"/>
     <use xlink:href="#m8cabc7feb7" x="66.984532" y="146.94059" style="fill: #1f4e79; fill-opacity: 0.8; stroke: #1f4e79; stroke-opacity: 0.8"/>
     <use xlink:href="#m8cabc7feb7" x="197.784015" y="44.76341" style="fill: #1f4e79; fill-opacity: 0.8; stroke: #1f4e79; stroke-opacity: 0.8"/>
     <use xlink:href="#m8cabc7feb7" x="148.523081" y="20.127559" style="fill: #1f4e79; fill-opacity: 0.8; stroke: #1f4e79; stroke-opacity: 0.8"/>
     <use xlink:href="#m8cabc7feb7" x="184.805177" y="18.603577" style="fill: #1f4e79; fill-opacity: 0.8; stroke: #1f4e79; stroke-opacity: 0.8"/>
     <use xlink:href="#m8cabc7feb7" x="166.963544" y="68.839567" style="fill: #1f4e79; fill-opacity: 0.8; stroke: #1f4e79; stroke-opacity: 0.8"/>
     <use xlink:href="#m8cabc7feb7" x="144.201308" y="20.721898" style="fill: #1f4e79; fill-opacity: 0.8; stroke: #1f4e79; stroke-opacity: 0.8"/>
     <use xlink:href="#m8cabc7feb7" x="171.747328" y="25.194439" style="fill: #1f4e79; fill-opacity: 0.8; stroke: #1f4e79; stroke-opacity: 0.8"/>
     <use xlink:href="#m8cabc7feb7" x="171.747328" y="25.194439" style="fill: #1f4e79; fill-opacity: 0.8; stroke: #1f4e79; stroke-opacity: 0.8"/>
     <use xlink:href="#m8cabc7feb7" x="177.082352" y="18.943064" style="fill: #1f4e79; fill-opacity: 0.8; stroke: #1f4e79; stroke-opacity: 0.8"/>
     <use xlink:href="#m8cabc7feb7" x="208.02454" y="18.605795" style="fill: #1f4e79; fill-opacity: 0.8; stroke: #1f4e79; stroke-opacity: 0.8"/>
     <use xlink:href="#m8cabc7feb7" x="177.371358" y="18.604418" style="fill: #1f4e79; fill-opacity: 0.8; stroke: #1f4e79; stroke-opacity: 0.8"/>
     <use xlink:href="#m8cabc7feb7" x="177.371157" y="18.604653" style="fill: #1f4e79; fill-opacity: 0.8; stroke: #1f4e79; stroke-opacity: 0.8"/>
     <use xlink:href="#m8cabc7feb7" x="231.237742" y="18.630223" style="fill: #1f4e79; fill-opacity: 0.8; stroke: #1f4e79; stroke-opacity: 0.8"/>
     <use xlink:href="#m8cabc7feb7" x="225.67587" y="18.642751" style="fill: #1f4e79; fill-opacity: 0.8; stroke: #1f4e79; stroke-opacity: 0.8"/>
     <use xlink:href="#m8cabc7feb7" x="231.139688" y="18.645476" style="fill: #1f4e79; fill-opacity: 0.8; stroke: #1f4e79; stroke-opacity: 0.8"/>
     <use xlink:href="#m8cabc7feb7" x="189.190092" y="18.603456" style="fill: #1f4e79; fill-opacity: 0.8; stroke: #1f4e79; stroke-opacity: 0.8"/>
     <use xlink:href="#m8cabc7feb7" x="189.190092" y="18.603456" style="fill: #1f4e79; fill-opacity: 0.8; stroke: #1f4e79; stroke-opacity: 0.8"/>
     <use xlink:href="#m8cabc7feb7" x="178.11449" y="18.603456" style="fill: #1f4e79; fill-opacity: 0.8; stroke: #1f4e79; stroke-opacity: 0.8"/>
     <use xlink:href="#m8cabc7feb7" x="176.644226" y="18.603456" style="fill: #1f4e79; fill-opacity: 0.8; stroke: #1f4e79; stroke-opacity: 0.8"/>
     <use xlink:href="#m8cabc7feb7" x="178.57862" y="18.604979" style="fill: #1f4e79; fill-opacity: 0.8; stroke: #1f4e79; stroke-opacity: 0.8"/>
     <use xlink:href="#m8cabc7feb7" x="178.584359" y="18.604979" style="fill: #1f4e79; fill-opacity: 0.8; stroke: #1f4e79; stroke-opacity: 0.8"/>
     <use xlink:href="#m8cabc7feb7" x="191.786738" y="18.603296" style="fill: #1f4e79; fill-opacity: 0.8; stroke: #1f4e79; stroke-opacity: 0.8"/>
     <use xlink:href="#m8cabc7feb7" x="179.958817" y="18.603456" style="fill: #1f4e79; fill-opacity: 0.8; stroke: #1f4e79; stroke-opacity: 0.8"/>
     <use xlink:href="#m8cabc7feb7" x="191.149597" y="18.603456" style="fill: #1f4e79; fill-opacity: 0.8; stroke: #1f4e79; stroke-opacity: 0.8"/>
     <use xlink:href="#m8cabc7feb7" x="166.634344" y="18.602954" style="fill: #1f4e79; fill-opacity: 0.8; stroke: #1f4e79; stroke-opacity: 0.8"/>
     <use xlink:href="#m8cabc7feb7" x="183.72884" y="18.603456" style="fill: #1f4e79; fill-opacity: 0.8; stroke: #1f4e79; stroke-opacity: 0.8"/>
     <use xlink:href="#m8cabc7feb7" x="165.548406" y="18.603752" style="fill: #1f4e79; fill-opacity: 0.8; stroke: #1f4e79; stroke-opacity: 0.8"/>
     <use xlink:href="#m8cabc7feb7" x="164.046761" y="18.617095" style="fill: #1f4e79; fill-opacity: 0.8; stroke: #1f4e79; stroke-opacity: 0.8"/>
    </g>
   </g>
   <g id="PathCollection_2">
    <defs>
     <path id="m4a0ece36b8" d="M -2.54951 2.54951 
L 2.54951 2.54951 
L 2.54951 -2.54951 
L -2.54951 -2.54951 
z
" style="stroke: #c0392b; stroke-opacity: 0.85"/>
    </defs>
    <g clip-path="url(#pd0c8094dc0)">
     <use xlink:href="#m4a0ece36b8" x="81.338113" y="20.71249" style="fill: #c0392b; fill-opacity: 0.85; stroke: #c0392b; stroke-opacity: 0.85"/>
     <use xlink:href="#m4a0ece36b8" x="48.811956" y="161.136537" style="fill: #c0392b; fill-opacity: 0.85; stroke: #c0392b; stroke-opacity: 0.85"/>
     <use xlink:href="#m4a0ece36b8" x="48.811956" y="161.136537" style="fill: #c0392b; fill-opacity: 0.85; stroke: #c0392b; stroke-opacity: 0.85"/>
     <use xlink:href="#m4a0ece36b8" x="48.811956" y="161.136537" style="fill: #c0392b; fill-opacity: 0.85; stroke: #c0392b; stroke-opacity: 0.85"/>
     <use xlink:href="#m4a0ece36b8" x="48.811956" y="161.136537" style="fill: #c0392b; fill-opacity: 0.85; stroke: #c0392b; stroke-opacity: 0.85"/>
     <use xlink:href="#m4a0ece36b8" x="89.4033" y="20.270621" style="fill: #c0392b; fill-opacity: 0.85; stroke: #c0392b; stroke-opacity: 0.85"/>
     <use xlink:href="#m4a0ece36b8" x="48.811956" y="161.136537" style="fill: #c0392b; fill-opacity: 0.85; stroke: #c0392b; stroke-opacity: 0.85"/>
     <use xlink:href="#m4a0ece36b8" x="49.734385" y="158.421556" style="fill: #c0392b; fill-opacity: 0.85; stroke: #c0392b; stroke-opacity: 0.85"/>
     <use xlink:href="#m4a0ece36b8" x="48.811956" y="161.136537" style="fill: #c0392b; fill-opacity: 0.85; stroke: #c0392b; stroke-opacity: 0.85"/>
     <use xlink:href="#m4a0ece36b8" x="64.528267" y="27.990228" style="fill: #c0392b; fill-opacity: 0.85; stroke: #c0392b; stroke-opacity: 0.85"/>
    </g>
   </g>
   <g id="text_15">
    <!-- mean $\geq 0.30$ -->
    <g style="fill: #333333" transform="translate(112.517839 155.435184) rotate(-90) scale(0.07 -0.07)">
     <defs>
      <path id="DejaVuSans-cef" d="M 678 3175 
L 678 3725 
L 4684 2578 
L 4684 2047 
L 678 897 
L 678 1453 
L 3681 2309 
L 678 3175 
z
M 4684 531 
L 4684 0 
L 678 0 
L 678 531 
L 4684 531 
z
" transform="scale(0.015625)"/>
      <path id="DejaVuSans-13" d="M 2034 4250 
Q 1547 4250 1301 3770 
Q 1056 3291 1056 2328 
Q 1056 1369 1301 889 
Q 1547 409 2034 409 
Q 2525 409 2770 889 
Q 3016 1369 3016 2328 
Q 3016 3291 2770 3770 
Q 2525 4250 2034 4250 
z
M 2034 4750 
Q 2819 4750 3233 4129 
Q 3647 3509 3647 2328 
Q 3647 1150 3233 529 
Q 2819 -91 2034 -91 
Q 1250 -91 836 529 
Q 422 1150 422 2328 
Q 422 3509 836 4129 
Q 1250 4750 2034 4750 
z
" transform="scale(0.015625)"/>
      <path id="DejaVuSans-11" d="M 684 794 
L 1344 794 
L 1344 0 
L 684 0 
L 684 794 
z
" transform="scale(0.015625)"/>
      <path id="DejaVuSans-16" d="M 2597 2516 
Q 3050 2419 3304 2112 
Q 3559 1806 3559 1356 
Q 3559 666 3084 287 
Q 2609 -91 1734 -91 
Q 1441 -91 1130 -33 
Q 819 25 488 141 
L 488 750 
Q 750 597 1062 519 
Q 1375 441 1716 441 
Q 2309 441 2620 675 
Q 2931 909 2931 1356 
Q 2931 1769 2642 2001 
Q 2353 2234 1838 2234 
L 1294 2234 
L 1294 2753 
L 1863 2753 
Q 2328 2753 2575 2939 
Q 2822 3125 2822 3475 
Q 2822 3834 2567 4026 
Q 2313 4219 1838 4219 
Q 1578 4219 1281 4162 
Q 984 4106 628 3988 
L 628 4550 
Q 988 4650 1302 4700 
Q 1616 4750 1894 4750 
Q 2613 4750 3031 4423 
Q 3450 4097 3450 3541 
Q 3450 3153 3228 2886 
Q 3006 2619 2597 2516 
z
" transform="scale(0.015625)"/>
     </defs>
     <use xlink:href="#DejaVuSerif-50" transform="translate(0 0.78125)"/>
     <use xlink:href="#DejaVuSerif-48" transform="translate(94.824219 0.78125)"/>
     <use xlink:href="#DejaVuSerif-44" transform="translate(154.003906 0.78125)"/>
     <use xlink:href="#DejaVuSerif-51" transform="translate(213.623047 0.78125)"/>
     <use xlink:href="#DejaVuSerif-3" transform="translate(278.027344 0.78125)"/>
     <use xlink:href="#DejaVuSans-cef" transform="translate(329.296875 0.78125)"/>
     <use xlink:href="#DejaVuSans-13" transform="translate(432.568359 0.78125)"/>
     <use xlink:href="#DejaVuSans-11" transform="translate(496.191406 0.78125)"/>
     <use xlink:href="#DejaVuSans-16" transform="translate(527.978516 0.78125)"/>
     <use xlink:href="#DejaVuSans-13" transform="translate(591.601562 0.78125)"/>
    </g>
   </g>
   <g id="text_16">
    <!-- max $\geq 0.50$ -->
    <g style="fill: #333333" transform="translate(56.110396 87.018945) scale(0.07 -0.07)">
     <defs>
      <path id="DejaVuSans-18" d="M 691 4666 
L 3169 4666 
L 3169 4134 
L 1269 4134 
L 1269 2991 
Q 1406 3038 1543 3061 
Q 1681 3084 1819 3084 
Q 2600 3084 3056 2656 
Q 3513 2228 3513 1497 
Q 3513 744 3044 326 
Q 2575 -91 1722 -91 
Q 1428 -91 1123 -41 
Q 819 9 494 109 
L 494 744 
Q 775 591 1075 516 
Q 1375 441 1709 441 
Q 2250 441 2565 725 
Q 2881 1009 2881 1497 
Q 2881 1984 2565 2268 
Q 2250 2553 1709 2553 
Q 1456 2553 1204 2497 
Q 953 2441 691 2322 
L 691 4666 
z
" transform="scale(0.015625)"/>
     </defs>
     <use xlink:href="#DejaVuSerif-50" transform="translate(0 0.78125)"/>
     <use xlink:href="#DejaVuSerif-44" transform="translate(94.824219 0.78125)"/>
     <use xlink:href="#DejaVuSerif-5b" transform="translate(154.443359 0.78125)"/>
     <use xlink:href="#DejaVuSerif-3" transform="translate(210.839844 0.78125)"/>
     <use xlink:href="#DejaVuSans-cef" transform="translate(262.109375 0.78125)"/>
     <use xlink:href="#DejaVuSans-13" transform="translate(365.380859 0.78125)"/>
     <use xlink:href="#DejaVuSans-11" transform="translate(429.003906 0.78125)"/>
     <use xlink:href="#DejaVuSans-18" transform="translate(460.791016 0.78125)"/>
     <use xlink:href="#DejaVuSans-13" transform="translate(524.414062 0.78125)"/>
    </g>
   </g>
   <g id="text_17">
    <!-- flagged -->
    <g style="fill: #595959" transform="translate(200.218863 30.005413) scale(0.075 -0.075)">
     <defs>
      <path id="DejaVuSerif-Italic-ce3" d="M 1003 2988 
L 453 2988 
L 519 3322 
L 1069 3322 
L 1128 3622 
Q 1250 4250 1683 4556 
Q 2116 4863 2878 4863 
L 4119 4863 
L 3238 331 
L 3784 331 
L 3722 0 
L 2600 0 
L 3478 4531 
L 2806 4531 
Q 2297 4531 2048 4328 
Q 1800 4125 1706 3634 
L 1644 3322 
L 2566 3322 
L 2500 2988 
L 1578 2988 
L 959 -206 
Q 850 -763 506 -1047 
Q 163 -1331 -397 -1331 
L -359 -1025 
Q -31 -1025 128 -850 
Q 294 -663 384 -206 
L 1003 2988 
z
" transform="scale(0.015625)"/>
      <path id="DejaVuSerif-Italic-44" d="M 2325 519 
Q 1909 -91 1238 -91 
Q 688 -91 409 281 
Q 216 544 216 919 
Q 216 1078 250 1256 
Q 463 2359 1231 2928 
Q 1884 3413 2675 3413 
Q 3206 3413 3388 3322 
L 2806 331 
L 3300 331 
L 3238 0 
L 2225 0 
L 2325 519 
z
M 822 938 
Q 822 269 1469 269 
Q 1863 269 2130 583 
Q 2397 897 2516 1497 
L 2806 3003 
L 2806 3003 
Q 2806 3094 2556 3094 
Q 1956 3094 1491 2625 
Q 1028 2153 863 1297 
Q 822 1097 822 938 
z
" transform="scale(0.015625)"/>
      <path id="DejaVuSerif-Italic-4a" d="M 3822 3322 
L 3188 72 
Q 3044 -672 2581 -1031 
Q 2078 -1422 1381 -1422 
Q 1053 -1422 765 -1362 
Q 478 -1303 225 -1184 
L 363 -488 
L 663 -488 
Q 653 -813 834 -963 
Q 1016 -1113 1406 -1113 
Q 1913 -1113 2203 -825 
Q 2494 -544 2613 72 
L 2700 519 
Q 2472 206 2181 57 
Q 1891 -91 1525 -91 
Q 975 -91 697 281 
Q 522 516 503 841 
Q 491 1031 534 1256 
Q 750 2359 1516 2928 
Q 2169 3409 2931 3413 
Q 3631 3416 3822 3322 
z
M 3184 2988 
Q 3181 3094 2844 3094 
Q 2234 3094 1775 2625 
Q 1316 2153 1147 1297 
Q 1100 1044 1113 853 
Q 1125 659 1203 528 
Q 1356 269 1756 269 
Q 2194 269 2484 583 
Q 2775 897 2891 1497 
L 2953 1825 
L 3184 2988 
z
" transform="scale(0.015625)"/>
      <path id="DejaVuSerif-Italic-48" d="M 938 1275 
Q 925 1156 925 1050 
Q 925 756 1031 563 
Q 1216 219 1709 219 
Q 2072 219 2250 328 
Q 2569 525 2644 778 
L 3066 778 
Q 2941 381 2475 103 
Q 2150 -91 1506 -91 
Q 863 -91 516 388 
Q 272 722 272 1206 
Q 272 1419 319 1659 
Q 472 2450 1000 2931 
Q 1528 3413 2278 3413 
Q 3500 3413 3500 2547 
Q 3500 1913 2859 1603 
Q 2206 1288 938 1275 
z
M 2541 1975 
Q 2891 2181 2891 2569 
Q 2891 3103 2181 3103 
Q 1763 3103 1472 2784 
Q 1181 2466 1003 1606 
Q 2006 1653 2541 1975 
z
" transform="scale(0.015625)"/>
      <path id="DejaVuSerif-Italic-47" d="M 3841 4863 
L 2897 0 
L 2322 0 
L 2422 519 
Q 2191 206 1902 57 
Q 1613 -91 1228 -91 
Q 616 -91 322 394 
Q 125 716 125 1166 
Q 125 1397 178 1663 
Q 331 2444 812 2928 
Q 1294 3413 1909 3413 
Q 2294 3413 2525 3264 
Q 2756 3116 2866 2803 
L 3200 4531 
L 2656 4531 
L 2722 4863 
L 3841 4863 
z
M 2613 1497 
L 2675 1825 
Q 2722 2069 2722 2266 
Q 2722 2550 2622 2738 
Q 2456 3053 2019 3053 
Q 1575 3053 1279 2703 
Q 984 2353 850 1663 
Q 788 1347 788 1103 
Q 788 813 875 622 
Q 1031 269 1475 269 
Q 1913 269 2203 583 
Q 2494 897 2613 1497 
z
" transform="scale(0.015625)"/>
     </defs>
     <use xlink:href="#DejaVuSerif-Italic-ce3"/>
     <use xlink:href="#DejaVuSerif-Italic-44" transform="translate(66.703125 0)"/>
     <use xlink:href="#DejaVuSerif-Italic-4a" transform="translate(126.328125 0)"/>
     <use xlink:href="#DejaVuSerif-Italic-4a" transform="translate(190.34375 0)"/>
     <use xlink:href="#DejaVuSerif-Italic-48" transform="translate(254.359375 0)"/>
     <use xlink:href="#DejaVuSerif-Italic-47" transform="translate(313.546875 0)"/>
    </g>
   </g>
   <g id="patch_8">
    <path d="M 126.96443 133.488557 
Q 97.985673 139.967981 69.77068 146.276633 
" style="fill: none; stroke: #737373; stroke-width: 0.7; stroke-linecap: round"/>
    <path d="M 72.591694 146.977976 
L 69.77068 146.276633 
L 72.024363 144.440628 
" style="fill: none; stroke: #737373; stroke-width: 0.7; stroke-linecap: round"/>
   </g>
   <g id="text_18">
    <!-- Pyrin matrix-hash -->
    <g style="fill: #404040" transform="translate(130.91941 121.977317) scale(0.065 -0.065)">
     <defs>
      <path id="DejaVuSerif-33" d="M 1581 2375 
L 2406 2375 
Q 2872 2375 3115 2626 
Q 3359 2878 3359 3353 
Q 3359 3831 3115 4081 
Q 2872 4331 2406 4331 
L 1581 4331 
L 1581 2375 
z
M 353 0 
L 353 331 
L 947 331 
L 947 4331 
L 353 4331 
L 353 4666 
L 2559 4666 
Q 3259 4666 3668 4311 
Q 4078 3956 4078 3353 
Q 4078 2753 3668 2397 
Q 3259 2041 2559 2041 
L 1581 2041 
L 1581 331 
L 2303 331 
L 2303 0 
L 353 0 
z
" transform="scale(0.015625)"/>
      <path id="DejaVuSerif-10" d="M 281 1959 
L 1881 1959 
L 1881 1472 
L 281 1472 
L 281 1959 
z
" transform="scale(0.015625)"/>
      <path id="DejaVuSerif-4b" d="M 263 0 
L 263 331 
L 781 331 
L 781 4531 
L 231 4531 
L 231 4863 
L 1356 4863 
L 1356 2731 
Q 1516 3069 1770 3241 
Q 2025 3413 2363 3413 
Q 2913 3413 3172 3097 
Q 3431 2781 3431 2113 
L 3431 331 
L 3944 331 
L 3944 0 
L 2356 0 
L 2356 331 
L 2853 331 
L 2853 1931 
Q 2853 2541 2704 2764 
Q 2556 2988 2175 2988 
Q 1775 2988 1565 2697 
Q 1356 2406 1356 1850 
L 1356 331 
L 1856 331 
L 1856 0 
L 263 0 
z
" transform="scale(0.015625)"/>
      <path id="DejaVuSerif-56" d="M 359 184 
L 359 959 
L 691 959 
Q 703 588 923 403 
Q 1144 219 1575 219 
Q 1963 219 2166 364 
Q 2369 509 2369 788 
Q 2369 1006 2220 1140 
Q 2072 1275 1594 1428 
L 1178 1569 
Q 750 1706 558 1912 
Q 366 2119 366 2438 
Q 366 2894 700 3153 
Q 1034 3413 1625 3413 
Q 1888 3413 2178 3344 
Q 2469 3275 2778 3144 
L 2778 2419 
L 2447 2419 
Q 2434 2741 2221 2922 
Q 2009 3103 1644 3103 
Q 1281 3103 1095 2975 
Q 909 2847 909 2591 
Q 909 2381 1050 2254 
Q 1191 2128 1613 1997 
L 2069 1856 
Q 2541 1709 2748 1489 
Q 2956 1269 2956 922 
Q 2956 450 2595 179 
Q 2234 -91 1600 -91 
Q 1278 -91 972 -22 
Q 666 47 359 184 
z
" transform="scale(0.015625)"/>
     </defs>
     <use xlink:href="#DejaVuSerif-33"/>
     <use xlink:href="#DejaVuSerif-5c" transform="translate(67.28125 0)"/>
     <use xlink:href="#DejaVuSerif-55" transform="translate(123.78125 0)"/>
     <use xlink:href="#DejaVuSerif-4c" transform="translate(171.578125 0)"/>
     <use xlink:href="#DejaVuSerif-51" transform="translate(203.5625 0)"/>
     <use xlink:href="#DejaVuSerif-3" transform="translate(267.96875 0)"/>
     <use xlink:href="#DejaVuSerif-50" transform="translate(299.75 0)"/>
     <use xlink:href="#DejaVuSerif-44" transform="translate(394.578125 0)"/>
     <use xlink:href="#DejaVuSerif-57" transform="translate(454.203125 0)"/>
     <use xlink:href="#DejaVuSerif-55" transform="translate(494.390625 0)"/>
     <use xlink:href="#DejaVuSerif-4c" transform="translate(542.1875 0)"/>
     <use xlink:href="#DejaVuSerif-5b" transform="translate(574.171875 0)"/>
     <use xlink:href="#DejaVuSerif-10" transform="translate(628.8125 0)"/>
     <use xlink:href="#DejaVuSerif-4b" transform="translate(662.609375 0)"/>
     <use xlink:href="#DejaVuSerif-44" transform="translate(727.015625 0)"/>
     <use xlink:href="#DejaVuSerif-56" transform="translate(786.640625 0)"/>
     <use xlink:href="#DejaVuSerif-4b" transform="translate(837.953125 0)"/>
    </g>
    <!-- (resembles AI matmul) -->
    <g style="fill: #404040" transform="translate(130.91941 129.779095) scale(0.065 -0.065)">
     <defs>
      <path id="DejaVuSerif-24" d="M 1281 1691 
L 2994 1691 
L 2138 3909 
L 1281 1691 
z
M -38 0 
L -38 331 
L 372 331 
L 2034 4666 
L 2559 4666 
L 4225 331 
L 4684 331 
L 4684 0 
L 2988 0 
L 2988 331 
L 3506 331 
L 3116 1356 
L 1153 1356 
L 763 331 
L 1275 331 
L 1275 0 
L -38 0 
z
" transform="scale(0.015625)"/>
      <path id="DejaVuSerif-2c" d="M 1581 331 
L 2175 331 
L 2175 0 
L 353 0 
L 353 331 
L 947 331 
L 947 4331 
L 353 4331 
L 353 4666 
L 2175 4666 
L 2175 4331 
L 1581 4331 
L 1581 331 
z
" transform="scale(0.015625)"/>
      <path id="DejaVuSerif-58" d="M 2266 3322 
L 3341 3322 
L 3341 331 
L 3884 331 
L 3884 0 
L 2766 0 
L 2766 588 
Q 2606 256 2353 82 
Q 2100 -91 1766 -91 
Q 1213 -91 952 223 
Q 691 538 691 1209 
L 691 2988 
L 172 2988 
L 172 3322 
L 1269 3322 
L 1269 1388 
Q 1269 781 1417 556 
Q 1566 331 1947 331 
Q 2347 331 2556 625 
Q 2766 919 2766 1478 
L 2766 2988 
L 2266 2988 
L 2266 3322 
z
" transform="scale(0.015625)"/>
     </defs>
     <use xlink:href="#DejaVuSerif-b"/>
     <use xlink:href="#DejaVuSerif-55" transform="translate(39.015625 0)"/>
     <use xlink:href="#DejaVuSerif-48" transform="translate(86.8125 0)"/>
     <use xlink:href="#DejaVuSerif-56" transform="translate(146 0)"/>
     <use xlink:href="#DejaVuSerif-48" transform="translate(197.3125 0)"/>
     <use xlink:href="#DejaVuSerif-50" transform="translate(256.5 0)"/>
     <use xlink:href="#DejaVuSerif-45" transform="translate(351.328125 0)"/>
     <use xlink:href="#DejaVuSerif-4f" transform="translate(415.34375 0)"/>
     <use xlink:href="#DejaVuSerif-48" transform="translate(447.328125 0)"/>
     <use xlink:href="#DejaVuSerif-56" transform="translate(506.515625 0)"/>
     <use xlink:href="#DejaVuSerif-3" transform="translate(557.828125 0)"/>
     <use xlink:href="#DejaVuSerif-24" transform="translate(589.609375 0)"/>
     <use xlink:href="#DejaVuSerif-2c" transform="translate(661.828125 0)"/>
     <use xlink:href="#DejaVuSerif-3" transform="translate(701.328125 0)"/>
     <use xlink:href="#DejaVuSerif-50" transform="translate(733.109375 0)"/>
     <use xlink:href="#DejaVuSerif-44" transform="translate(827.9375 0)"/>
     <use xlink:href="#DejaVuSerif-57" transform="translate(887.5625 0)"/>
     <use xlink:href="#DejaVuSerif-50" transform="translate(927.75 0)"/>
     <use xlink:href="#DejaVuSerif-58" transform="translate(1022.578125 0)"/>
     <use xlink:href="#DejaVuSerif-4f" transform="translate(1086.984375 0)"/>
     <use xlink:href="#DejaVuSerif-c" transform="translate(1118.96875 0)"/>
    </g>
   </g>
   <g id="legend_1">
    <g id="patch_9">
     <path d="M 153.487422 163.087891 
L 233.321406 163.087891 
Q 234.821406 163.087891 234.821406 161.587891 
L 234.821406 139.836719 
Q 234.821406 138.336719 233.321406 138.336719 
L 153.487422 138.336719 
Q 151.987422 138.336719 151.987422 139.836719 
L 151.987422 161.587891 
Q 151.987422 163.087891 153.487422 163.087891 
z
" style="fill: #ffffff; stroke: #b2b2b2; stroke-linejoin: miter"/>
    </g>
    <g id="PathCollection_3">
     <g>
      <use xlink:href="#m8cabc7feb7" x="162.487422" y="145.066797" style="fill: #1f4e79; fill-opacity: 0.8; stroke: #1f4e79; stroke-opacity: 0.8"/>
     </g>
    </g>
    <g id="text_19">
     <!-- Mining (n=48) -->
     <g transform="translate(175.987422 147.035547) scale(0.075 -0.075)">
      <defs>
       <path id="DejaVuSerif-20" d="M 678 2894 
L 4684 2894 
L 4684 2394 
L 678 2394 
L 678 2894 
z
M 678 1619 
L 4684 1619 
L 4684 1119 
L 678 1119 
L 678 1619 
z
" transform="scale(0.015625)"/>
      </defs>
      <use xlink:href="#DejaVuSerif-30"/>
      <use xlink:href="#DejaVuSerif-4c" transform="translate(102.390625 0)"/>
      <use xlink:href="#DejaVuSerif-51" transform="translate(134.375 0)"/>
      <use xlink:href="#DejaVuSerif-4c" transform="translate(198.78125 0)"/>
      <use xlink:href="#DejaVuSerif-51" transform="translate(230.765625 0)"/>
      <use xlink:href="#DejaVuSerif-4a" transform="translate(295.171875 0)"/>
      <use xlink:href="#DejaVuSerif-3" transform="translate(359.1875 0)"/>
      <use xlink:href="#DejaVuSerif-b" transform="translate(390.96875 0)"/>
      <use xlink:href="#DejaVuSerif-51" transform="translate(429.984375 0)"/>
      <use xlink:href="#DejaVuSerif-20" transform="translate(494.390625 0)"/>
      <use xlink:href="#DejaVuSerif-17" transform="translate(578.1875 0)"/>
      <use xlink:href="#DejaVuSerif-1b" transform="translate(641.8125 0)"/>
      <use xlink:href="#DejaVuSerif-c" transform="translate(705.4375 0)"/>
     </g>
    </g>
    <g id="PathCollection_4">
     <g>
      <use xlink:href="#m4a0ece36b8" x="162.487422" y="156.317383" style="fill: #c0392b; fill-opacity: 0.85; stroke: #c0392b; stroke-opacity: 0.85"/>
     </g>
    </g>
    <g id="text_20">
     <!-- Benign (n=10) -->
     <g transform="translate(175.987422 158.286133) scale(0.075 -0.075)">
      <defs>
       <path id="DejaVuSerif-25" d="M 1581 331 
L 2516 331 
Q 3078 331 3337 575 
Q 3597 819 3597 1350 
Q 3597 1878 3339 2120 
Q 3081 2363 2516 2363 
L 1581 2363 
L 1581 331 
z
M 1581 2694 
L 2375 2694 
Q 2888 2694 3123 2891 
Q 3359 3088 3359 3513 
Q 3359 3941 3123 4136 
Q 2888 4331 2375 4331 
L 1581 4331 
L 1581 2694 
z
M 353 0 
L 353 331 
L 947 331 
L 947 4331 
L 353 4331 
L 353 4666 
L 2656 4666 
Q 3363 4666 3720 4377 
Q 4078 4088 4078 3513 
Q 4078 3097 3829 2850 
Q 3581 2603 3103 2547 
Q 3697 2472 4005 2167 
Q 4313 1863 4313 1350 
Q 4313 656 3875 328 
Q 3438 0 2509 0 
L 353 0 
z
" transform="scale(0.015625)"/>
      </defs>
      <use xlink:href="#DejaVuSerif-25"/>
      <use xlink:href="#DejaVuSerif-48" transform="translate(73.484375 0)"/>
      <use xlink:href="#DejaVuSerif-51" transform="translate(132.671875 0)"/>
      <use xlink:href="#DejaVuSerif-4c" transform="translate(197.078125 0)"/>
      <use xlink:href="#DejaVuSerif-4a" transform="translate(229.0625 0)"/>
      <use xlink:href="#DejaVuSerif-51" transform="translate(293.078125 0)"/>
      <use xlink:href="#DejaVuSerif-3" transform="translate(357.484375 0)"/>
      <use xlink:href="#DejaVuSerif-b" transform="translate(389.265625 0)"/>
      <use xlink:href="#DejaVuSerif-51" transform="translate(428.28125 0)"/>
      <use xlink:href="#DejaVuSerif-20" transform="translate(492.6875 0)"/>
      <use xlink:href="#DejaVuSerif-14" transform="translate(576.484375 0)"/>
      <use xlink:href="#DejaVuSerif-13" transform="translate(640.109375 0)"/>
      <use xlink:href="#DejaVuSerif-c" transform="translate(703.734375 0)"/>
     </g>
    </g>
   </g>
  </g>
 </g>
 <defs>
  <clipPath id="pd0c8094dc0">
   <rect x="41.513516" y="7.2" width="197.057891" height="159.637891"/>
  </clipPath>
 </defs>
</svg>
